<svg width="111" height="136" viewBox="0 0 111 136" fill="none" xmlns="http://www.w3.org/2000/svg">
<path d="M88.5005 93C88.5005 115.92 69.9203 134.5 47.0005 134.5C24.0807 134.5 5.50049 115.92 5.50049 93C5.50049 70.0802 24.0807 51.5 47.0005 51.5C69.9203 51.5 88.5005 70.0802 88.5005 93Z" stroke="#129E47" stroke-width="3"/>
<path d="M12.4436 49.7473C12.7629 49.1219 12.7342 48.4925 12.2517 47.9745C11.54 47.2106 10.5064 47.3863 9.46158 48.3596L7.42453 50.2573L11.7269 54.8758L13.8255 52.9209C15.0284 51.8003 15.1826 50.8038 14.4382 50.0048C13.8738 49.399 13.2236 49.2995 12.4436 49.7473ZM8.48843 50.1846L9.87573 48.8922C10.5869 48.2297 11.2193 48.1162 11.7019 48.6343C12.1845 49.1523 12.0429 49.7926 11.3317 50.4551L9.94438 51.7475L8.48843 50.1846ZM13.3411 52.4537L11.8747 53.8197L10.3779 52.2129L11.9057 50.7896C12.6871 50.0616 13.2756 49.9891 13.7909 50.5423C14.3062 51.0954 14.1225 51.7257 13.3411 52.4537Z" fill="#129E47"/>
<path d="M19.9266 48.9987L20.5736 48.585L21.4104 42.0965L24.1123 46.3227L24.8301 45.8637L21.4301 40.5457L20.7932 40.9529L19.9463 47.4478L17.2444 43.2217L16.5266 43.6806L19.9266 48.9987Z" fill="#129E47"/>
<path d="M31.5629 37.0302L26.307 39.0427L26.5773 39.7488L28.8074 38.8948L30.7942 44.0834L31.5899 43.7788L29.6031 38.5901L31.8332 37.7362L31.5629 37.0302Z" fill="#129E47"/>
<path d="M37.3561 35.9073C36.3863 36.1344 35.546 36.6515 35.0499 37.3222L35.5687 37.854C35.9672 37.2924 36.6493 36.8369 37.4439 36.6509C38.5889 36.3829 39.3188 36.8159 39.565 37.8675L39.6525 38.2414L37.7013 38.6981C35.9369 39.1111 35.5154 40.0479 35.7369 40.9943C35.9858 42.0575 37.0083 42.5823 38.3987 42.2568C39.4153 42.0189 40.0494 41.4637 40.2756 40.7452L40.4999 41.7033L41.2944 41.5173L40.4028 37.7083C40.0308 36.1193 38.9451 35.5354 37.3561 35.9073ZM38.3741 41.5724C37.3926 41.8022 36.7162 41.4922 36.5493 40.7795C36.4016 40.1485 36.6778 39.5909 37.8696 39.3119L39.7975 38.8606L40.0327 39.8654C39.8943 40.7482 39.3088 41.3536 38.3741 41.5724Z" fill="#129E47"/>
<path d="M51.2807 34.7694L48.9014 39.5068L45.8956 35.1697L45.034 35.2337L45.5019 41.5284L46.2797 41.4705L45.9088 36.4803L48.7718 40.5152L49.1547 40.4867L51.3906 36.0848L51.7606 41.0631L52.5385 41.0053L52.0706 34.7107L51.2807 34.7694Z" fill="#129E47"/>
<path d="M57.9949 42.4773L58.7541 42.5937L63.6655 38.2719L62.9056 43.23L63.7478 43.359L64.704 37.1199L63.9568 37.0054L59.0335 41.3253L59.7934 36.3672L58.9512 36.2382L57.9949 42.4773Z" fill="#129E47"/>
<path d="M68.5836 45.641L69.3833 45.935L70.3441 43.322L74.072 44.6928L73.1113 47.3057L73.9109 47.5998L76.0892 41.6756L75.2896 41.3815L74.3246 44.0058L70.5967 42.635L71.5616 40.0108L70.7619 39.7167L68.5836 45.641Z" fill="#129E47"/>
<path d="M82.6946 48.7777L81.1779 47.808L82.3423 45.9321L81.6184 45.4827L78.2896 50.8456L80.404 52.1721C81.8085 53.0722 82.9923 52.9172 83.7011 51.7753C84.3846 50.6741 84.034 49.6233 82.6946 48.7777ZM83.5098 54.0858L84.2337 54.5351L87.5625 49.1722L86.8386 48.7229L83.5098 54.0858ZM80.705 51.5963L79.3616 50.7342L80.8425 48.3484L82.1858 49.2105C83.1787 49.8409 83.4606 50.5244 82.967 51.3196C82.467 52.1251 81.6876 52.2203 80.705 51.5963Z" fill="#129E47"/>
</svg>
