<svg width="87" height="105" viewBox="0 0 87 105" fill="none" xmlns="http://www.w3.org/2000/svg">
<path d="M43.8843 102.505C20.9653 102.704 2.22474 84.2859 2.02598 61.3669C1.82722 38.448 20.2456 19.7073 43.1645 19.5086C66.0835 19.3098 84.8241 37.7282 85.0229 60.6471C85.2216 83.5661 66.8033 102.307 43.8843 102.505Z" stroke="#129E47" stroke-width="3"/>
<path d="M30.9069 15.6047C31.9078 15.2321 32.6005 14.5133 32.7882 13.5727L32.0414 13.3897C31.8584 14.1365 31.3291 14.6408 30.6431 14.8962C29.3498 15.3777 28.0661 14.8184 27.5469 13.4239C27.032 12.0406 27.6334 10.7668 28.9266 10.2853C29.6127 10.03 30.3471 10.0767 30.9738 10.522L31.4192 9.89525C30.658 9.29511 29.668 9.21548 28.6671 9.58809C26.9015 10.2454 26.0799 11.9597 26.7372 13.7253C27.3945 15.4909 29.1413 16.262 30.9069 15.6047Z" fill="#129E47"/>
<path d="M36.0263 14.575L36.78 14.4275L39.9381 8.69802L40.9018 13.6206L41.7379 13.4569L40.5252 7.26248L39.7833 7.40772L36.6134 13.1395L35.6498 8.21693L34.8136 8.38061L36.0263 14.575Z" fill="#129E47"/>
<path d="M46.481 7.73994L46.3317 9.99358C46.2171 11.6598 46.0901 13.3497 45.0462 13.3306C44.9622 13.329 44.8547 13.303 44.7472 13.2771L44.6737 14.0078C44.9006 14.072 45.0919 14.1115 45.2839 14.115C46.6396 14.1399 46.9499 12.2733 47.0984 10.0677L47.211 8.50946L50.2345 8.56493L50.1326 14.12L50.9845 14.1356L51.1003 7.82469L46.481 7.73994Z" fill="#129E47"/>
<path d="M57.8137 9.47294C56.8389 9.2687 55.8588 9.38214 55.1256 9.78024L55.371 10.4815C55.9696 10.141 56.7803 10.0166 57.579 10.1839C58.73 10.4251 59.2084 11.1261 58.9869 12.1831L58.9082 12.5589L56.9468 12.148C55.1733 11.7764 54.3952 12.4471 54.1959 13.3985C53.972 14.4673 54.6768 15.3751 56.0744 15.6679C57.0962 15.882 57.9056 15.647 58.4144 15.0915L58.2126 16.0546L59.0112 16.2219L59.8134 12.3931C60.1481 10.7957 59.4111 9.8076 57.8137 9.47294ZM56.3414 15.0373C55.3548 14.8306 54.8729 14.2637 55.023 13.5472C55.1558 12.913 55.6418 12.5244 56.8398 12.7754L58.7778 13.1814L58.5661 14.1915C58.0675 14.933 57.281 15.2341 56.3414 15.0373Z" fill="#129E47"/>
</svg>
