<svg width="97" height="112" viewBox="0 0 97 112" fill="none" xmlns="http://www.w3.org/2000/svg">
<path d="M53.6594 105.689C30.8719 108.148 10.4055 91.669 7.94641 68.8815C5.48735 46.0939 21.9668 25.6276 44.7544 23.1685C67.5419 20.7095 88.0083 37.1889 90.4673 59.9765C92.9264 82.764 76.4469 103.23 53.6594 105.689Z" stroke="#129E47" stroke-width="3"/>
<path d="M17.4345 21.5485C16.5909 22.1636 16.0449 22.9627 15.9251 23.8372L16.6222 23.9378C16.7642 23.1956 17.1755 22.5987 17.8155 22.1321C18.9014 21.3402 20.2611 21.433 21.1392 22.3521L18.4243 24.3317L18.8061 24.8553L21.5307 22.8686C22.1876 23.9935 21.8929 25.3817 20.7778 26.1947C20.1379 26.6614 19.4438 26.8704 18.6937 26.7787L18.5835 27.4829C19.4527 27.6362 20.3805 27.3607 21.224 26.7456C22.7657 25.6215 23.1233 23.6677 22.0274 22.1648C20.9315 20.6619 18.9762 20.4244 17.4345 21.5485Z" fill="#129E47"/>
<path d="M26.4949 23.173L27.2643 22.8071L26.0686 20.2929L29.6557 18.587L30.8513 21.1012L31.6207 20.7352L28.9099 15.035L28.1404 15.4009L29.3413 17.9259L25.7543 19.6318L24.5534 17.1068L23.784 17.4728L26.4949 23.173Z" fill="#129E47"/>
<path d="M40.0662 15.0175C39.6112 13.1769 38.0509 12.2153 36.3268 12.6415C34.6027 13.0676 33.6525 14.6746 34.1018 16.4919C34.551 18.3092 36.1782 19.2914 38.0887 18.8191C39.0556 18.5801 39.8196 18.0204 40.2059 17.2327L39.6075 16.812C39.2739 17.4631 38.6762 17.8952 37.9306 18.0795C36.5909 18.4106 35.4022 17.8021 34.9922 16.5437L40.1179 15.2767C40.0949 15.1835 40.0835 15.0874 40.0662 15.0175ZM36.5024 13.3521C37.7023 13.0555 38.7834 13.6782 39.1848 14.8522L34.8396 15.9263C34.6478 14.7005 35.3142 13.6458 36.5024 13.3521Z" fill="#129E47"/>
<path d="M47.1479 11.1059C46.105 11.1537 45.2508 11.6493 44.7738 12.512L44.7167 11.2653L43.9015 11.3026L44.2968 19.9336L45.1479 19.8946L44.9871 16.3823C45.5518 17.1733 46.4347 17.5653 47.4417 17.5192C49.2398 17.4368 50.5231 16.0807 50.4352 14.1627C50.3479 12.2567 48.9461 11.0236 47.1479 11.1059ZM47.3471 16.7667C46.0045 16.8282 44.9526 15.8913 44.885 14.4169C44.8181 12.9544 45.7795 11.9133 47.122 11.8519C48.4527 11.7909 49.5171 12.7392 49.5841 14.2017C49.6516 15.6761 48.6777 16.7058 47.3471 16.7667Z" fill="#129E47"/>
<path d="M58.9711 11.9314L54.5451 11.3503L53.7234 17.6085L54.5681 17.7195L55.2914 12.2107L58.8727 12.681L58.9711 11.9314Z" fill="#129E47"/>
<path d="M60.6313 18.7323L61.3632 18.9648L66.8847 15.4558L65.3661 20.2364L66.1782 20.4943L68.0891 14.4785L67.3686 14.2496L61.8357 17.7551L63.3542 12.9745L62.5422 12.7165L60.6313 18.7323Z" fill="#129E47"/>
<path d="M74.621 17.5587C73.1912 16.7718 71.9189 16.8934 71.2246 18.155C70.7328 19.0486 70.8982 19.8929 71.6224 20.5929L69.1806 21.7693L69.9901 22.2148L72.2794 21.0915L72.4897 21.2072L74.2243 22.1619L73.2176 23.9911L73.9009 24.3672L76.9444 18.8374L74.621 17.5587ZM71.97 18.5926C72.456 17.7095 73.2472 17.6655 74.2775 18.2326L75.8965 19.1236L74.531 21.6047L72.8594 20.6847C71.8292 20.1177 71.5071 19.4336 71.97 18.5926Z" fill="#129E47"/>
</svg>
